<?xml version="1.0" encoding="UTF-8"?>
<svg version="1.1" xmlns="http://www.w3.org/2000/svg" width="531" height="499">
<path d="M0 0 C175.23 0 350.46 0 531 0 C531 164.67 531 329.34 531 499 C355.77 499 180.54 499 0 499 C0 334.33 0 169.66 0 0 Z " fill="#000000" transform="translate(0,0)"/>
<path d="M0 0 C1.58469939 -0.00895972 1.58469939 -0.00895972 3.20141292 -0.01810044 C4.94069902 -0.00499265 4.94069902 -0.00499265 6.71512222 0.00837994 C7.94768918 0.00581666 9.18025614 0.00325339 10.45017362 0.00061244 C13.87320151 -0.00347949 17.29571657 0.00591417 20.71868253 0.02094662 C24.40917154 0.0338876 28.09964437 0.0295189 31.79014969 0.0272398 C38.18476245 0.02566583 44.57928346 0.03508788 50.97387314 0.05195332 C60.21939046 0.07632209 69.46486336 0.08414641 78.71040931 0.08791729 C93.71023542 0.09448511 108.71001262 0.11445523 123.70981216 0.14282513 C138.28174982 0.17035715 152.85367412 0.19156053 167.42563248 0.20434856 C168.78642711 0.20555455 168.78642711 0.20555455 170.17471254 0.2067849 C177.26945854 0.21302308 184.36420483 0.21889388 191.45895123 0.22464859 C226.24167243 0.25295576 261.0242712 0.31330917 295.80698013 0.36914349 C295.80698013 44.91914349 295.80698013 89.46914349 295.80698013 135.36914349 C279.31321805 133.01289176 268.46858376 121.20218418 258.74057388 108.36133099 C249.50221965 95.93267429 241.58130442 82.86053407 233.79916763 69.49023724 C215.17001336 32.06151561 215.17001336 32.06151561 185.80698013 5.36914349 C181.36182502 4.67408287 177.80018823 4.88267421 173.74448013 6.86914349 C172.29041763 8.10664349 172.29041763 8.10664349 170.80698013 9.36914349 C169.9194606 10.12131145 169.9194606 10.12131145 169.01401138 10.88867474 C157.24311146 21.67279263 149.88249075 37.19797697 142.17612076 50.93945599 C140.95771752 53.10164375 139.72448318 55.25381206 138.47885513 57.40039349 C138.12839127 58.00552776 137.7779274 58.61066204 137.41684341 59.23413372 C136.51933745 60.78107447 135.62027381 62.32711121 134.72104263 63.87304974 C133.0677339 66.89286874 131.53018957 69.93364321 130.01010513 73.02148724 C126.89656753 79.288853 123.47837774 85.33821987 119.93198013 91.36914349 C119.31629166 92.41860149 118.70060318 93.4680595 118.06625748 94.54931927 C100.89451089 123.64852935 100.89451089 123.64852935 87.80698013 133.36914349 C87.14698013 133.36914349 86.48698013 133.36914349 85.80698013 133.36914349 C85.47698013 134.35914349 85.14698013 135.34914349 84.80698013 136.36914349 C21.77698013 136.36914349 -41.25301987 136.36914349 -106.19301987 136.36914349 C-105.041743 116.79743672 -105.041743 116.79743672 -104.14223862 109.28711224 C-104.04361023 108.4324789 -103.94498184 107.57784557 -103.84336472 106.69731426 C-103.52809117 103.98305491 -103.20508647 101.26980612 -102.88051987 98.55664349 C-102.76941879 97.6178233 -102.65831772 96.67900311 -102.54384995 95.71173382 C-93.08388062 15.85218958 -93.08388062 15.85218958 -83.19301987 1.36914349 C-78.65363038 1.00108488 -78.65363038 1.00108488 -76.62319565 2.62353802 C-72.34459389 7.84579861 -71.47141411 16.00336177 -70.31801987 22.49414349 C-70.1543895 23.40083782 -69.99075912 24.30753216 -69.82217026 25.24170208 C-68.11751236 35.11679722 -66.88374498 45.05400015 -65.63051987 54.99414349 C-65.52224869 55.85222607 -65.41397751 56.71030865 -65.30242538 57.59439373 C-64.87816988 60.9609114 -64.45504303 64.32756991 -64.03242111 67.69429302 C-62.32261217 81.31197251 -60.26246738 94.65459539 -57.25551987 108.05664349 C-57.01454575 109.14501507 -56.77357162 110.23338665 -56.52529526 111.35473919 C-54.85838077 118.50491043 -52.46713058 124.82092207 -49.19301987 131.36914349 C-46.7800702 131.34761429 -46.7800702 131.34761429 -44.19301987 130.36914349 C-38.73772616 121.79301426 -36.62026371 111.10489029 -34.56801987 101.30664349 C-34.26874139 99.9270462 -33.96851492 98.54765426 -33.6673851 97.16845989 C-31.9184225 89.0961606 -30.31581824 80.99894703 -28.81924057 72.87622356 C-27.26725081 64.54546502 -25.54206012 56.25223647 -23.77917099 47.96393108 C-23.43631753 46.34687118 -23.09645869 44.72917275 -22.75994492 43.11078167 C-15.70492626 9.24403738 -15.70492626 9.24403738 -7.4357965 1.78381652 C-4.72487038 0.0738495 -3.18671268 -0.00397676 0 0 Z " fill="#2D2D2D" transform="translate(235.19301986694336,92.63085651397705)"/>
<path d="M0 0 C23.00473788 9.09489637 35.02961878 56.64753767 44.0234375 77.10058594 C56.08377758 107.74147034 56.08377758 107.74147034 77.6875 131.0625 C82.93795609 131.89151938 86.21433353 130.82253889 90.6875 128.0625 C95.25158669 124.54683487 98.7550214 120.86405471 102.1875 116.25 C102.69812988 115.56405762 103.20875977 114.87811523 103.73486328 114.17138672 C114.48546359 99.34263662 122.88077846 82.84742007 131.49853516 66.72973633 C162.21052495 9.30098753 162.21052495 9.30098753 178.6875 1.0625 C185.5871629 0.28019621 191.04817391 0.9137906 196.6875 5.0625 C211.9721069 17.90630921 221.77029421 36.04895797 231.6875 53.0625 C232.3725496 54.23763545 233.05760867 55.41276538 233.74267578 56.58789062 C234.1013826 57.20331726 234.46008942 57.8187439 234.82966614 58.45281982 C235.95048755 60.37494878 237.07247228 62.29639523 238.19458008 64.21777344 C239.65162848 66.71273819 241.10269106 69.21103508 242.54956055 71.71191406 C246.98816994 79.35376376 251.69619424 86.76678174 256.6875 94.0625 C257.14560059 94.74054688 257.60370117 95.41859375 258.07568359 96.1171875 C267.95481012 110.66314067 280.45547071 128.16461788 298.6875 132.0625 C298.6875 133.0525 298.6875 134.0425 298.6875 135.0625 C285.46204077 133.9603784 275.55770506 124.81887409 267.16015625 115.1328125 C255.54223536 100.70676855 245.97850983 85.15967053 236.6796875 69.18359375 C218.05053322 31.75487212 218.05053322 31.75487212 188.6875 5.0625 C184.24234489 4.36743938 180.6807081 4.57603073 176.625 6.5625 C175.1709375 7.8 175.1709375 7.8 173.6875 9.0625 C172.79998047 9.81466797 172.79998047 9.81466797 171.89453125 10.58203125 C160.12363133 21.36614914 152.76301061 36.89133348 145.05664062 50.6328125 C143.83823739 52.79500027 142.60500304 54.94716857 141.359375 57.09375 C141.00891113 57.69888428 140.65844727 58.30401855 140.29736328 58.92749023 C139.39985732 60.47443098 138.50079367 62.02046772 137.6015625 63.56640625 C135.94825377 66.58622526 134.41070944 69.62699973 132.890625 72.71484375 C129.77708739 78.98220952 126.3588976 85.03157639 122.8125 91.0625 C122.19681152 92.11195801 121.58112305 93.16141602 120.94677734 94.24267578 C103.77503076 123.34188587 103.77503076 123.34188587 90.6875 133.0625 C90.0275 133.0625 89.3675 133.0625 88.6875 133.0625 C88.3575 134.0525 88.0275 135.0425 87.6875 136.0625 C24.6575 136.0625 -38.3725 136.0625 -103.3125 136.0625 C-102.16122313 116.49079324 -102.16122313 116.49079324 -101.26171875 108.98046875 C-101.16309036 108.12583542 -101.06446198 107.27120209 -100.96284485 106.39067078 C-100.6475713 103.67641143 -100.3245666 100.96316264 -100 98.25 C-99.88889893 97.31117981 -99.77779785 96.37235962 -99.66333008 95.40509033 C-90.20336075 15.5455461 -90.20336075 15.5455461 -80.3125 1.0625 C-75.77311052 0.69444139 -75.77311052 0.69444139 -73.74267578 2.31689453 C-69.46407403 7.53915512 -68.59089424 15.69671829 -67.4375 22.1875 C-67.27386963 23.09419434 -67.11023926 24.00088867 -66.94165039 24.93505859 C-65.23699249 34.81015374 -64.00322511 44.74735666 -62.75 54.6875 C-62.64172882 55.54558258 -62.53345764 56.40366516 -62.42190552 57.28775024 C-61.99765001 60.65426791 -61.57452316 64.02092643 -61.15190125 67.38764954 C-59.4420923 81.00532902 -57.38194751 94.34795191 -54.375 107.75 C-54.13402588 108.83837158 -53.89305176 109.92674316 -53.64477539 111.0480957 C-51.97786091 118.19826694 -49.58661071 124.51427858 -46.3125 131.0625 C-43.89955033 131.0409708 -43.89955033 131.0409708 -41.3125 130.0625 C-35.85720629 121.48637077 -33.73974384 110.7982468 -31.6875 101 C-31.38822152 99.62040272 -31.08799506 98.24101077 -30.78686523 96.86181641 C-29.03790263 88.78951712 -27.43529837 80.69230354 -25.9387207 72.56958008 C-24.38673094 64.23882154 -22.66154025 55.94559298 -20.89865112 47.6572876 C-20.55579766 46.0402277 -20.21593882 44.42252927 -19.87942505 42.80413818 C-12.75775881 8.61746042 -12.75775881 8.61746042 -4.3046875 1.33203125 C-2.3125 0.0625 -2.3125 0.0625 0 0 Z " fill="#2E2E2E" transform="translate(232.3125,92.9375)"/>
<path d="M0 0 C9.50418253 4.45855641 16.28169355 12.84333074 22 21.375 C22.54688477 22.18227539 23.09376953 22.98955078 23.65722656 23.82128906 C30.27380145 33.71819403 36.31147341 43.97098427 42.359375 54.22119141 C45.50396121 59.54733429 48.69283001 64.84677891 51.88574219 70.14404297 C52.68134081 71.46922717 53.4732544 72.7966266 54.26269531 74.12548828 C60.6383908 84.85628138 67.32290207 95.15132539 75 105 C75.44843262 105.58152832 75.89686523 106.16305664 76.35888672 106.76220703 C85.00342432 117.8659397 95.43650712 128.79341017 110 131 C110 131.33 110 131.66 110 132 C40.37 132 -29.26 132 -101 132 C-99.8673662 128.60209859 -99.29216307 128.28555728 -96.4375 126.375 C-81.19780657 115.24975311 -72.35337444 96.41359259 -63.32177734 80.33496094 C-61.62900285 77.34462196 -59.88091894 74.39116497 -58.125 71.4375 C-56.05714296 67.91229609 -54.16037734 64.36327689 -52.375 60.6875 C-20.7066991 -3.75578973 -20.7066991 -3.75578973 0 0 Z " fill="#2D2D2D" transform="translate(421,97)"/>
<path d="M0 0 C23.00473788 9.09489637 35.02961878 56.64753767 44.0234375 77.10058594 C56.08377758 107.74147034 56.08377758 107.74147034 77.6875 131.0625 C82.93795609 131.89151938 86.21433353 130.82253889 90.6875 128.0625 C95.25158669 124.54683487 98.7550214 120.86405471 102.1875 116.25 C102.69812988 115.56405762 103.20875977 114.87811523 103.73486328 114.17138672 C114.48546359 99.34263662 122.88077846 82.84742007 131.49853516 66.72973633 C162.21052495 9.30098753 162.21052495 9.30098753 178.6875 1.0625 C185.5871629 0.28019621 191.04817391 0.9137906 196.6875 5.0625 C211.9721069 17.90630921 221.77029421 36.04895797 231.6875 53.0625 C232.3725496 54.23763545 233.05760867 55.41276538 233.74267578 56.58789062 C234.1013826 57.20331726 234.46008942 57.8187439 234.82966614 58.45281982 C235.95048755 60.37494878 237.07247228 62.29639523 238.19458008 64.21777344 C239.65162848 66.71273819 241.10269106 69.21103508 242.54956055 71.71191406 C246.98816994 79.35376376 251.69619424 86.76678174 256.6875 94.0625 C257.14560059 94.74054688 257.60370117 95.41859375 258.07568359 96.1171875 C267.95481012 110.66314067 280.45547071 128.16461788 298.6875 132.0625 C298.6875 133.0525 298.6875 134.0425 298.6875 135.0625 C285.46204077 133.9603784 275.55770506 124.81887409 267.16015625 115.1328125 C255.54223536 100.70676855 245.97850983 85.15967053 236.6796875 69.18359375 C218.05053322 31.75487212 218.05053322 31.75487212 188.6875 5.0625 C184.24234489 4.36743938 180.6807081 4.57603073 176.625 6.5625 C175.1709375 7.8 175.1709375 7.8 173.6875 9.0625 C172.79998047 9.81466797 172.79998047 9.81466797 171.89453125 10.58203125 C160.12363133 21.36614914 152.76301061 36.89133348 145.05664062 50.6328125 C143.83823739 52.79500027 142.60500304 54.94716857 141.359375 57.09375 C141.00891113 57.69888428 140.65844727 58.30401855 140.29736328 58.92749023 C139.39985732 60.47443098 138.50079367 62.02046772 137.6015625 63.56640625 C135.94825377 66.58622526 134.41070944 69.62699973 132.890625 72.71484375 C129.77708739 78.98220952 126.3588976 85.03157639 122.8125 91.0625 C122.19681152 92.11195801 121.58112305 93.16141602 120.94677734 94.24267578 C99.97361681 129.78375493 99.97361681 129.78375493 86.6875 135.0625 C81.63953277 135.86577787 77.72952017 135.57436956 73.125 133.3125 C55.10117697 118.20802859 44.71600887 89.63607147 35.8996582 68.55664062 C33.31402205 62.4075235 30.46632023 56.45193722 27.4206543 50.51928711 C25.53126369 46.81948668 23.83844134 43.11287248 22.3125 39.25 C20.09576065 33.77202379 17.47558472 28.55040226 14.75 23.3125 C14.13922607 22.12370239 14.13922607 22.12370239 13.51611328 20.91088867 C8.71952732 11.13892452 8.71952732 11.13892452 0.5 4.875 C-2.25906517 4.79844217 -2.25906517 4.79844217 -3.83984375 6.23046875 C-15.17579736 20.33275587 -16.64595764 46.23961793 -19.8828125 63.484375 C-22.25273678 76.10612778 -24.81386446 88.67035779 -27.6875 101.1875 C-27.9659375 102.44175781 -28.244375 103.69601563 -28.53125 104.98828125 C-30.43284183 113.2542097 -32.60362415 121.40197193 -36.3125 129.0625 C-36.57042831 129.69154739 -36.82835663 130.32059479 -37.09410095 130.96870422 C-38.28346266 133.25585745 -39.22814757 134.52381356 -41.3125 136.0625 C-45.98143013 137.05132426 -50.61804569 136.87755794 -55.36328125 136.74609375 C-56.74616485 136.73302782 -58.129081 136.72306833 -59.51200867 136.71607971 C-63.14114823 136.68942997 -66.76830725 136.62074194 -70.39666748 136.54315186 C-74.10336514 136.47137133 -77.81038486 136.4395371 -81.51757812 136.40429688 C-88.78345227 136.32936138 -96.047698 136.20999291 -103.3125 136.0625 C-102.72919096 123.38614819 -101.50699817 110.8475105 -100 98.25 C-99.88889893 97.31117981 -99.77779785 96.37235962 -99.66333008 95.40509033 C-90.20336075 15.5455461 -90.20336075 15.5455461 -80.3125 1.0625 C-75.77311052 0.69444139 -75.77311052 0.69444139 -73.74267578 2.31689453 C-69.46407403 7.53915512 -68.59089424 15.69671829 -67.4375 22.1875 C-67.27386963 23.09419434 -67.11023926 24.00088867 -66.94165039 24.93505859 C-65.23699249 34.81015374 -64.00322511 44.74735666 -62.75 54.6875 C-62.64172882 55.54558258 -62.53345764 56.40366516 -62.42190552 57.28775024 C-61.99765001 60.65426791 -61.57452316 64.02092643 -61.15190125 67.38764954 C-59.4420923 81.00532902 -57.38194751 94.34795191 -54.375 107.75 C-54.13402588 108.83837158 -53.89305176 109.92674316 -53.64477539 111.0480957 C-51.97786091 118.19826694 -49.58661071 124.51427858 -46.3125 131.0625 C-43.89955033 131.0409708 -43.89955033 131.0409708 -41.3125 130.0625 C-35.85720629 121.48637077 -33.73974384 110.7982468 -31.6875 101 C-31.38822152 99.62040272 -31.08799506 98.24101077 -30.78686523 96.86181641 C-29.03790263 88.78951712 -27.43529837 80.69230354 -25.9387207 72.56958008 C-24.38673094 64.23882154 -22.66154025 55.94559298 -20.89865112 47.6572876 C-20.55579766 46.0402277 -20.21593882 44.42252927 -19.87942505 42.80413818 C-12.75775881 8.61746042 -12.75775881 8.61746042 -4.3046875 1.33203125 C-2.3125 0.0625 -2.3125 0.0625 0 0 Z " fill="#2F2F2F" transform="translate(232.3125,92.9375)"/>
<path d="M0 0 C33.33 0 66.66 0 101 0 C99.35 1.98 97.7 3.96 96 6 C91.08420119 15.1809455 88.50244633 24.86039169 86.3125 35 C86.03083984 36.25039062 85.74917969 37.50078125 85.45898438 38.7890625 C84.62224184 42.52251879 83.80808614 46.26024673 83 50 C82.74508789 51.16329834 82.49017578 52.32659668 82.22753906 53.52514648 C80.66125585 60.7269086 79.22413049 67.94559266 77.85742188 75.18774414 C68.54466436 124.45533564 68.54466436 124.45533564 61 132 C58.625 132.125 58.625 132.125 56 131 C52.76131227 126.12419835 51.00259973 120.49788941 49.5625 114.875 C49.35496094 114.06772461 49.14742187 113.26044922 48.93359375 112.42871094 C44.22395028 93.25677375 41.87908868 73.56250495 39.4375 54 C37.45561746 38.05507812 37.45561746 38.05507812 34.9375 22.1875 C34.79948975 21.37216797 34.66147949 20.55683594 34.51928711 19.71679688 C32.78354103 10.13733302 32.78354103 10.13733302 28 2 C26.33382885 1.95936168 24.66611905 1.957279 23 2 C19.36555948 9.33074387 17.17370474 16.67510049 15.375 24.625 C15.18139893 25.47529785 14.98779785 26.3255957 14.78833008 27.20166016 C11.17434574 43.78778533 9.06246234 60.60383148 7 77.4375 C6.73694595 79.56251604 6.4737614 81.68751593 6.21044922 83.8125 C4.35280791 98.8618611 2.58273514 113.91897895 1 129 C0.67 129 0.34 129 0 129 C0 86.43 0 43.86 0 0 Z " fill="#2E2E2E" transform="translate(129,93)"/>
<path d="M0 0 C23.00473788 9.09489637 35.02961878 56.64753767 44.0234375 77.10058594 C56.08377758 107.74147034 56.08377758 107.74147034 77.6875 131.0625 C82.93795609 131.89151938 86.21433353 130.82253889 90.6875 128.0625 C95.25158669 124.54683487 98.7550214 120.86405471 102.1875 116.25 C102.69812988 115.56405762 103.20875977 114.87811523 103.73486328 114.17138672 C114.48546359 99.34263662 122.88077846 82.84742007 131.49853516 66.72973633 C162.21052495 9.30098753 162.21052495 9.30098753 178.6875 1.0625 C185.5871629 0.28019621 191.04817391 0.9137906 196.6875 5.0625 C211.9721069 17.90630921 221.77029421 36.04895797 231.6875 53.0625 C232.3725496 54.23763545 233.05760867 55.41276538 233.74267578 56.58789062 C234.1013826 57.20331726 234.46008942 57.8187439 234.82966614 58.45281982 C235.95048755 60.37494878 237.07247228 62.29639523 238.19458008 64.21777344 C239.65162848 66.71273819 241.10269106 69.21103508 242.54956055 71.71191406 C246.98816994 79.35376376 251.69619424 86.76678174 256.6875 94.0625 C257.14560059 94.74054688 257.60370117 95.41859375 258.07568359 96.1171875 C267.95481012 110.66314067 280.45547071 128.16461788 298.6875 132.0625 C298.6875 133.0525 298.6875 134.0425 298.6875 135.0625 C285.46204077 133.9603784 275.55770506 124.81887409 267.16015625 115.1328125 C255.54223536 100.70676855 245.97850983 85.15967053 236.6796875 69.18359375 C218.05053322 31.75487212 218.05053322 31.75487212 188.6875 5.0625 C184.24234489 4.36743938 180.6807081 4.57603073 176.625 6.5625 C175.1709375 7.8 175.1709375 7.8 173.6875 9.0625 C172.79998047 9.81466797 172.79998047 9.81466797 171.89453125 10.58203125 C160.12363133 21.36614914 152.76301061 36.89133348 145.05664062 50.6328125 C143.83823739 52.79500027 142.60500304 54.94716857 141.359375 57.09375 C141.00891113 57.69888428 140.65844727 58.30401855 140.29736328 58.92749023 C139.39985732 60.47443098 138.50079367 62.02046772 137.6015625 63.56640625 C135.94825377 66.58622526 134.41070944 69.62699973 132.890625 72.71484375 C129.77708739 78.98220952 126.3588976 85.03157639 122.8125 91.0625 C122.19681152 92.11195801 121.58112305 93.16141602 120.94677734 94.24267578 C99.97361681 129.78375493 99.97361681 129.78375493 86.6875 135.0625 C81.63953277 135.86577787 77.72952017 135.57436956 73.125 133.3125 C55.10117697 118.20802859 44.71600887 89.63607147 35.8996582 68.55664062 C33.31402205 62.4075235 30.46632023 56.45193722 27.4206543 50.51928711 C25.53126369 46.81948668 23.83844134 43.11287248 22.3125 39.25 C20.09576065 33.77202379 17.47558472 28.55040226 14.75 23.3125 C14.13922607 22.12370239 14.13922607 22.12370239 13.51611328 20.91088867 C8.71952732 11.13892452 8.71952732 11.13892452 0.5 4.875 C-2.25906517 4.79844217 -2.25906517 4.79844217 -3.83984375 6.23046875 C-15.17579736 20.33275587 -16.64595764 46.23961793 -19.8828125 63.484375 C-22.25273678 76.10612778 -24.81386446 88.67035779 -27.6875 101.1875 C-27.9659375 102.44175781 -28.244375 103.69601563 -28.53125 104.98828125 C-34.01718259 128.83479001 -34.01718259 128.83479001 -41.3125 135.0625 C-44.3125 135.8125 -44.3125 135.8125 -47.3125 135.0625 C-54.73691718 128.52194201 -56.74964661 117.46345533 -58.75 108.125 C-58.95753906 107.16174805 -59.16507813 106.19849609 -59.37890625 105.20605469 C-62.18932914 91.53063848 -63.84919859 77.65828575 -65.67871094 63.82568359 C-66.62683784 56.67429216 -67.614314 49.52851885 -68.62084961 42.38513184 C-68.92729582 40.19783363 -69.22656163 38.00963871 -69.52539062 35.82128906 C-70.98310372 25.33824945 -72.85670588 15.08690548 -76.3125 5.0625 C-76.9725 5.0625 -77.6325 5.0625 -78.3125 5.0625 C-92.39913434 39.7545835 -94.60021544 81.27598648 -98.05664062 118.26538086 C-98.17329071 119.50354553 -98.17329071 119.50354553 -98.29229736 120.76672363 C-98.4369881 122.31233227 -98.57873646 123.85822032 -98.71697998 125.40441895 C-99.02379277 128.70325922 -99.36114581 131.88082903 -100.3125 135.0625 C-101.3025 135.0625 -102.2925 135.0625 -103.3125 135.0625 C-102.70137814 122.74454102 -101.45777213 110.55578669 -100 98.3125 C-99.88889893 97.37118225 -99.77779785 96.4298645 -99.66333008 95.46002197 C-90.2197084 15.56948372 -90.2197084 15.56948372 -80.3125 1.0625 C-75.77311052 0.69444139 -75.77311052 0.69444139 -73.74267578 2.31689453 C-69.46407403 7.53915512 -68.59089424 15.69671829 -67.4375 22.1875 C-67.27386963 23.09419434 -67.11023926 24.00088867 -66.94165039 24.93505859 C-65.23699249 34.81015374 -64.00322511 44.74735666 -62.75 54.6875 C-62.64172882 55.54558258 -62.53345764 56.40366516 -62.42190552 57.28775024 C-61.99765001 60.65426791 -61.57452316 64.02092643 -61.15190125 67.38764954 C-59.4420923 81.00532902 -57.38194751 94.34795191 -54.375 107.75 C-54.13402588 108.83837158 -53.89305176 109.92674316 -53.64477539 111.0480957 C-51.97786091 118.19826694 -49.58661071 124.51427858 -46.3125 131.0625 C-43.89955033 131.0409708 -43.89955033 131.0409708 -41.3125 130.0625 C-35.85720629 121.48637077 -33.73974384 110.7982468 -31.6875 101 C-31.38822152 99.62040272 -31.08799506 98.24101077 -30.78686523 96.86181641 C-29.03790263 88.78951712 -27.43529837 80.69230354 -25.9387207 72.56958008 C-24.38673094 64.23882154 -22.66154025 55.94559298 -20.89865112 47.6572876 C-20.55579766 46.0402277 -20.21593882 44.42252927 -19.87942505 42.80413818 C-12.75775881 8.61746042 -12.75775881 8.61746042 -4.3046875 1.33203125 C-2.3125 0.0625 -2.3125 0.0625 0 0 Z " fill="#EAEAEA" transform="translate(232.3125,92.9375)"/>
<path d="M0 0 C2.76260939 2.0028918 4.6089762 3.9759643 6.5 6.8125 C6.5 7.4725 6.5 8.1325 6.5 8.8125 C7.16 8.8125 7.82 8.8125 8.5 8.8125 C8.665 8.090625 8.83 7.36875 9 6.625 C11.23737152 2.4299284 14.08313875 0.50007435 18.5 -1.1875 C24.92173622 -2.08687929 31.08802056 -2.11118509 36.5 1.8125 C43.36951314 9.25447257 43.65550371 16.66269833 43.59765625 26.3671875 C43.5962413 27.26873566 43.59482635 28.17028381 43.59336853 29.09915161 C43.5877974 31.961969 43.57525026 34.82470648 43.5625 37.6875 C43.55748127 39.63541553 43.55291901 41.5833323 43.54882812 43.53125 C43.53783742 48.29169718 43.52059277 53.05208507 43.5 57.8125 C38.55 57.8125 33.6 57.8125 28.5 57.8125 C28.49589111 56.56637939 28.49178223 55.32025879 28.48754883 54.03637695 C28.46574633 49.40477362 28.41144485 44.77401846 28.34741211 40.14282227 C28.32424189 38.13997539 28.30983868 36.13700683 28.30444336 34.1340332 C28.29514667 31.25134546 28.25414094 28.37056881 28.20703125 25.48828125 C28.2109639 24.59538895 28.21489655 23.70249664 28.21894836 22.782547 C28.11386488 18.28620757 27.94897905 16.38825122 25.10058594 12.7355957 C22.29100595 10.65795192 21.33455215 10.20305082 17.9375 10.6875 C17.19371094 10.76742188 16.44992188 10.84734375 15.68359375 10.9296875 C12.42453894 12.24730179 11.3692298 13.82830787 9.5 16.8125 C8.89963938 19.9627103 8.89513926 23.06923617 8.890625 26.26953125 C8.87408875 27.17249435 8.85755249 28.07545746 8.84051514 29.00578308 C8.79207943 31.87892489 8.77067412 34.75153757 8.75 37.625 C8.7218366 39.57750051 8.69190865 41.52997643 8.66015625 43.48242188 C8.58632163 48.25907102 8.53671993 53.03542719 8.5 57.8125 C3.88 57.8125 -0.74 57.8125 -5.5 57.8125 C-5.50410889 56.56637939 -5.50821777 55.32025879 -5.51245117 54.03637695 C-5.53425367 49.40477362 -5.58855515 44.77401846 -5.65258789 40.14282227 C-5.67575811 38.13997539 -5.69016132 36.13700683 -5.69555664 34.1340332 C-5.70485333 31.25134546 -5.74585906 28.37056881 -5.79296875 25.48828125 C-5.7890361 24.59538895 -5.78510345 23.70249664 -5.78105164 22.782547 C-5.88613512 18.28620757 -6.05102095 16.38825122 -8.89941406 12.7355957 C-11.70899405 10.65795192 -12.66544785 10.20305082 -16.0625 10.6875 C-16.80628906 10.76742188 -17.55007812 10.84734375 -18.31640625 10.9296875 C-21.57546106 12.24730179 -22.6307702 13.82830787 -24.5 16.8125 C-25.10036062 19.9627103 -25.10486074 23.06923617 -25.109375 26.26953125 C-25.12591125 27.17249435 -25.14244751 28.07545746 -25.15948486 29.00578308 C-25.20792057 31.87892489 -25.22932588 34.75153757 -25.25 37.625 C-25.2781634 39.57750051 -25.30809135 41.52997643 -25.33984375 43.48242188 C-25.41367837 48.25907102 -25.46328007 53.03542719 -25.5 57.8125 C-30.12 57.8125 -34.74 57.8125 -39.5 57.8125 C-39.5 38.6725 -39.5 19.5325 -39.5 -0.1875 C-34.88 -0.1875 -30.26 -0.1875 -25.5 -0.1875 C-25.17 2.4525 -24.84 5.0925 -24.5 7.8125 C-23.943125 6.884375 -23.38625 5.95625 -22.8125 5 C-17.2106989 -2.72140151 -8.58782181 -2.91372526 0 0 Z " fill="#F8F8F8" transform="translate(84.5,414.1875)"/>
<path d="M0 0 C4.62364269 2.92346914 8.28474007 7.2616141 10.25 12.375 C10.41786322 14.95034673 10.48317374 17.41254393 10.4453125 19.984375 C10.4424826 20.71118469 10.43965271 21.43799438 10.43673706 22.18682861 C10.42557523 24.49972251 10.40047851 26.81222388 10.375 29.125 C10.36496501 30.69660898 10.35584006 32.26822404 10.34765625 33.83984375 C10.32564904 37.68504622 10.29114715 41.52995664 10.25 45.375 C12.23 45.375 14.21 45.375 16.25 45.375 C16.25 49.335 16.25 53.295 16.25 57.375 C4.16101357 57.81195132 4.16101357 57.81195132 0.25 54.375 C-2.0625 51.6875 -2.0625 51.6875 -3.75 49.375 C-4.08 50.1175 -4.41 50.86 -4.75 51.625 C-7.50237391 55.40951413 -10.29623865 57.01473791 -14.75 58.375 C-21.37601213 59.23058263 -26.97430091 58.79327089 -32.75 55.375 C-37.13781484 50.86859557 -38.83975844 46.71235592 -39.1875 40.5 C-39.07487776 36.04810923 -38.2244693 33.26603102 -35.3671875 29.84375 C-26.80552563 22.06794115 -15.5656966 23.2399913 -4.75 23.375 C-4.81023265 21.76979996 -4.89908599 20.16565673 -5 18.5625 C-5.04640625 17.66917969 -5.0928125 16.77585937 -5.140625 15.85546875 C-5.55386496 13.2761845 -5.55386496 13.2761845 -7.48828125 11.57421875 C-11.43592296 9.4810823 -15.40041549 9.84456286 -19.75 10.375 C-22.62391821 11.54774994 -22.62391821 11.54774994 -24.75 13.375 C-25.8946875 14.2103125 -25.8946875 14.2103125 -27.0625 15.0625 C-27.619375 15.495625 -28.17625 15.92875 -28.75 16.375 C-31.06 14.395 -33.37 12.415 -35.75 10.375 C-34.74479966 6.35419866 -34.50467666 5.73104081 -31.5625 3.25 C-30.99144531 2.75242187 -30.42039063 2.25484375 -29.83203125 1.7421875 C-22.21113651 -3.26215238 -8.31449902 -3.82275817 0 0 Z " fill="#F6F6F6" transform="translate(177.75,414.625)"/>
<path d="M0 0 C3.83468178 2.71175316 6.11337798 5.22678534 8.3125 9.375 C9.08013672 10.74785156 9.08013672 10.74785156 9.86328125 12.1484375 C11 16 11 16 11 30 C-1.54 30 -14.08 30 -27 30 C-25.07958302 38.64254135 -25.07958302 38.64254135 -20 44 C-15.94429748 45.35190084 -12.24092772 45.55725501 -8 45 C-4.6167447 43.1353694 -4.6167447 43.1353694 -2 41 C-1.34 41 -0.68 41 0 41 C0.33 40.01 0.66 39.02 1 38 C3 38 3 38 4.54296875 39.390625 C5.08566406 40.00421875 5.62835938 40.6178125 6.1875 41.25 C6.73792969 41.85328125 7.28835938 42.4565625 7.85546875 43.078125 C9 45 9 45 8.9296875 47.0390625 C6.81265672 51.50439633 1.41956106 53.99224569 -2.98828125 55.828125 C-10.6250625 58.04168478 -19.66020858 58.04670587 -27 55 C-33.90455956 51.19517527 -37.20103062 46.27972294 -40 39 C-42.53144031 30.12855601 -42.54045118 17.50046542 -38.46484375 9.1171875 C-29.61265273 -3.67717925 -13.82367061 -7.03750504 0 0 Z " fill="#FAFAFA" transform="translate(344,416)"/>
<path d="M0 0 C4.62 0 9.24 0 14 0 C23.95744681 30.4893617 23.95744681 30.4893617 27 43 C29.24644882 37.21107419 31.13736061 31.39677898 32.875 25.4375 C35.39946841 16.89094009 38.11302922 8.43097661 41 0 C45.29 0 49.58 0 54 0 C53.18449781 4.89301316 52.04446513 9.24704727 50.453125 13.8984375 C50.20004578 14.65105865 49.94696655 15.40367981 49.68621826 16.17910767 C48.87842792 18.57920862 48.06458527 20.97719763 47.25 23.375 C46.19027788 26.50699579 45.13330386 29.63990829 44.078125 32.7734375 C43.82011108 33.53879822 43.56209717 34.30415894 43.29626465 35.0927124 C40.74566056 42.69288568 38.3637408 50.33972889 36 58 C30.39 58 24.78 58 19 58 C15.92600245 50.91272787 13.35898401 44.02907718 11.12402344 36.63647461 C9.94677546 32.82780637 8.69936749 29.04932055 7.421875 25.2734375 C7.20319763 24.62539658 6.98452026 23.97735565 6.75921631 23.30967712 C5.86021651 20.64856599 4.95904279 17.98822146 4.05273438 15.32958984 C3.38010836 13.35386934 2.7130873 11.37632829 2.046875 9.3984375 C1.65338867 8.24005371 1.25990234 7.08166992 0.85449219 5.88818359 C0 3 0 3 0 0 Z " fill="#F8F8F8" transform="translate(243,414)"/>
<path d="M0 0 C4.62 0 9.24 0 14 0 C14 23.1 14 46.2 14 70 C16.64 70 19.28 70 22 70 C22 73.96 22 77.92 22 82 C8.79180887 82.44027304 8.79180887 82.44027304 4 79 C0.03994469 74.63028379 -0.12354727 70.79258527 -0.11352539 65.05004883 C-0.11367142 64.34735367 -0.11381744 63.64465851 -0.1139679 62.92066956 C-0.11327157 60.59942532 -0.10549226 58.27826146 -0.09765625 55.95703125 C-0.09579108 54.3470616 -0.09436764 52.73709139 -0.09336853 51.12712097 C-0.08955118 46.89057853 -0.07972755 42.6540704 -0.06866455 38.4175415 C-0.05843364 34.09412093 -0.05386731 29.77069481 -0.04882812 25.44726562 C-0.03810459 16.96482626 -0.0205141 8.48242135 0 0 Z " fill="#FAFAFA" transform="translate(368,390)"/>
<path d="M0 0 C4.62 0 9.24 0 14 0 C14.33 3.3 14.66 6.6 15 10 C15.804375 8.3603125 15.804375 8.3603125 16.625 6.6875 C18.81183952 2.91023175 20.76201082 1.38549646 25 0 C27.72273703 -0.21624626 30.26005668 -0.14172121 33 0 C33 4.29 33 8.58 33 13 C30.463125 13.1546875 30.463125 13.1546875 27.875 13.3125 C23.3117537 13.72413304 19.89837016 14.43528279 16 17 C14.33650681 20.32698637 14.75621943 24.06429385 14.68359375 27.7265625 C14.66281265 28.58937836 14.64203156 29.45219421 14.62062073 30.34115601 C14.55513966 33.10235493 14.49624702 35.86365038 14.4375 38.625 C14.3943134 40.49480172 14.35069907 42.36459362 14.30664062 44.234375 C14.19945976 48.82281728 14.09818825 53.41135683 14 58 C9.38 58 4.76 58 0 58 C0 38.86 0 19.72 0 0 Z " fill="#FBFBFB" transform="translate(205,414)"/>
<path d="M0 0 C2.31 0 4.62 0 7 0 C7.02505615 0.74685059 7.0501123 1.49370117 7.07592773 2.26318359 C7.19168213 5.63397267 7.31450128 9.00446783 7.4375 12.375 C7.47681641 13.550625 7.51613281 14.72625 7.55664062 15.9375 C7.59853516 17.05898438 7.64042969 18.18046875 7.68359375 19.3359375 C7.72025146 20.37282715 7.75690918 21.4097168 7.79467773 22.47802734 C7.84164223 24.99425166 7.84164223 24.99425166 9 27 C10.27875 27.061875 11.5575 27.12375 12.875 27.1875 C13.59429687 27.22230469 14.31359375 27.25710938 15.0546875 27.29296875 C15.69664063 27.19628906 16.33859375 27.09960938 17 27 C19.22535794 23.66196309 19.28978404 22.37180289 19.4140625 18.45703125 C19.45273438 17.38388672 19.49140625 16.31074219 19.53125 15.20507812 C19.57765625 13.52575195 19.57765625 13.52575195 19.625 11.8125 C19.66367188 10.68134766 19.70234375 9.55019531 19.7421875 8.38476562 C19.83652533 5.5900075 19.92211652 2.79525722 20 0 C21.98 0 23.96 0 26 0 C26.08770383 3.85402129 26.14062735 7.70778291 26.1875 11.5625 C26.21263672 12.64853516 26.23777344 13.73457031 26.26367188 14.85351562 C26.32004853 21.03615524 26.08174568 25.58089166 23 31 C19.92306417 33.89045487 17.14712187 34.24124189 13.0625 34.4375 C8.33805893 34.28260029 5.54782309 33.28173635 2 30 C0.11108963 26.24838053 -0.23809998 23.21474797 -0.1953125 19.04296875 C-0.18886719 17.93115234 -0.18242188 16.81933594 -0.17578125 15.67382812 C-0.15902344 14.52333984 -0.14226563 13.37285156 -0.125 12.1875 C-0.11597656 11.01767578 -0.10695312 9.84785156 -0.09765625 8.64257812 C-0.07413732 5.76150947 -0.04126852 2.88086011 0 0 Z " fill="#A8A8A8" transform="translate(45,346)"/>
<path d="M0 0 C7.26 0 14.52 0 22 0 C22 1.65 22 3.3 22 5 C16.72 5 11.44 5 6 5 C6 7.64 6 10.28 6 13 C10.62 13 15.24 13 20 13 C20 14.98 20 16.96 20 19 C15.38 19 10.76 19 6 19 C6 21.97 6 24.94 6 28 C11.28 28 16.56 28 22 28 C22 29.65 22 31.3 22 33 C14.74 33 7.48 33 0 33 C0 22.11 0 11.22 0 0 Z " fill="#AEAEAE" transform="translate(139,346)"/>
<path d="M0 0 C2.74051074 1.62782217 5.0375609 3.47949228 7 6 C7 6.99 7 7.98 7 9 C4.75 9.6875 4.75 9.6875 2 10 C0.66150329 9.00692179 -0.67151309 8.00642948 -2 7 C-6.20542807 6.4709777 -6.20542807 6.4709777 -9.8125 8.375 C-13.03384822 12.78316072 -12.39379269 17.74438222 -12 23 C-11.27790869 26.24283444 -11.27790869 26.24283444 -9 28 C-5.8253989 28.45351444 -4.01147729 28.68470208 -1 28 C1.50520579 26.16658535 1.50520579 26.16658535 3 24 C4.32 24.66 5.64 25.32 7 26 C6.45712148 29.80014965 4.88535357 31.53896313 2 34 C-2.77364362 35.59121454 -7.15016855 35.79879085 -11.75 33.8125 C-15.25536595 30.98873298 -17.57096705 28.28709884 -19 24 C-19.95027159 10.31243421 -19.95027159 10.31243421 -16 5 C-11.27257487 0.62713176 -6.47387772 -1.27587371 0 0 Z " fill="#A9A9A9" transform="translate(126,345)"/>
<path d="M0 0 C1.98 0 3.96 0 6 0 C9.38445205 7.81304356 11.77557024 15.78854119 14 24 C14.5878125 22.2365625 14.5878125 22.2365625 15.1875 20.4375 C17.45833333 13.625 19.72916667 6.8125 22 0 C23.98 0 25.96 0 28 0 C26.72404757 7.6834064 24.50973788 14.80731811 21.875 22.125 C21.31619141 23.7028125 21.31619141 23.7028125 20.74609375 25.3125 C19.83678193 27.87722564 18.92134249 30.43957707 18 33 C15.36 33 12.72 33 10 33 C0 3.3 0 3.3 0 0 Z " fill="#A8A8A8" transform="translate(76,346)"/>
<path d="M0 0 C3.51732742 1.28517733 5.4770624 2.37247488 7.875 5.25 C9 8 9 8 9 15 C1.08 15 -6.84 15 -15 15 C-15 8.21334972 -13.77006919 5.86558882 -9.1875 1.125 C-5.95746393 -0.53616141 -3.58570502 -0.370935 0 0 Z " fill="#131313" transform="translate(332,423)"/>
<path d="M0 0 C0.74507812 0.01353516 1.49015625 0.02707031 2.2578125 0.04101562 C4.08885416 0.07622796 5.91952169 0.13003149 7.75 0.1875 C7.80447047 1.60373216 7.84300508 3.02058191 7.875 4.4375 C7.89820313 5.22640625 7.92140625 6.0153125 7.9453125 6.828125 C7.72707843 9.46439258 7.19022908 10.97724745 5.75 13.1875 C0.78476553 16.12610815 -2.66174878 16.43899542 -8.33203125 15.70703125 C-10.25 15.1875 -10.25 15.1875 -12.25 13.1875 C-12.5859375 10.91015625 -12.5859375 10.91015625 -12.625 8.25 C-12.65335938 7.37472656 -12.68171875 6.49945313 -12.7109375 5.59765625 C-12.25 3.1875 -12.25 3.1875 -10.7421875 1.3828125 C-7.19748828 -0.31730969 -3.83885513 -0.13225738 0 0 Z " fill="#090909" transform="translate(166.25,446.8125)"/>
<path d="M0 0 C2.79576024 2.13010304 3.74818035 3.50389502 4.33203125 6.97265625 C4.49506651 10.20316979 4.2249591 12.58221881 2.6875 15.4375 C0.11841521 17.81628222 -1.98608245 17.99898781 -5.4375 18.25 C-9.16435873 17.98846605 -10.45125491 17.64677375 -13 15 C-14.24022613 11.27932162 -14.52113485 7.86573161 -14 4 C-11.06614322 -1.33428505 -5.43063328 -1.01937136 0 0 Z " fill="#F5F5F5" transform="translate(415,455)"/>
<path d="M0 0 C0.33 0 0.66 0 1 0 C1.71753463 4.87389211 2.4294329 9.74856267 3.13623047 14.62402344 C3.3772135 16.28082222 3.61970718 17.93740203 3.86376953 19.59375 C4.21528768 21.98120384 4.56127901 24.36940494 4.90625 26.7578125 C5.0156189 27.49242706 5.12498779 28.22704163 5.2376709 28.98391724 C6.12797944 35.21204646 6.72187218 40.21602162 4 46 C3.67 46 3.34 46 3 46 C2.44465585 41.94780152 1.89351747 37.89505333 1.34594727 33.84179688 C1.15987338 32.46860042 0.97273351 31.0955479 0.78442383 29.72265625 C-0.38870548 21.16350479 -1.39138884 12.62012862 -2 4 C-1.34 4 -0.68 4 0 4 C0 2.68 0 1.36 0 0 Z " fill="#E3E3E3" transform="translate(165,122)"/>
<path d="M0 0 C1.55536531 2.82877554 2.36829407 5.26268863 2.8515625 8.44921875 C2.98046875 9.29806641 3.109375 10.14691406 3.2421875 11.02148438 C3.36851562 11.90126953 3.49484375 12.78105469 3.625 13.6875 C3.7590625 14.54794922 3.893125 15.40839844 4.03125 16.29492188 C4.86255288 21.9231817 5.126788 27.31182939 5 33 C1.12384972 29.14556484 0.99786534 24.35208363 0.3125 19.1875 C0.18294922 18.31029297 0.05339844 17.43308594 -0.08007812 16.52929688 C-1.88402423 3.76804847 -1.88402423 3.76804847 0 0 Z " fill="#EEEEEE" transform="translate(170,163)"/>
<path d="M0 0 C0.66 0.33 1.32 0.66 2 1 C1.37392048 6.79947349 0.32599062 12.33809831 -1.0625 18 C-1.24876953 18.77472656 -1.43503906 19.54945313 -1.62695312 20.34765625 C-2.08076178 22.23270759 -2.53982492 24.1164927 -3 26 C-3.66 26 -4.32 26 -5 26 C-5.66 26.99 -6.32 27.98 -7 29 C-6.19499313 23.00809322 -5.16079657 17.0696833 -4.0625 11.125 C-3.80823242 9.68253906 -3.80823242 9.68253906 -3.54882812 8.2109375 C-3.37931641 7.29828125 -3.20980469 6.385625 -3.03515625 5.4453125 C-2.8844165 4.61531738 -2.73367676 3.78532227 -2.57836914 2.93017578 C-2.38750732 2.29321777 -2.19664551 1.65625977 -2 1 C-1.34 0.67 -0.68 0.34 0 0 Z " fill="#EAEAEA" transform="translate(208,166)"/>
<path d="M0 0 C0 0.33 0 0.66 0 1 C-0.8353125 1.09474609 -0.8353125 1.09474609 -1.6875 1.19140625 C-8.56860067 2.29563693 -12.11453759 5.2107502 -17 10 C-21.56521739 13.85507246 -21.56521739 13.85507246 -25 15 C-22.21763795 8.78558729 -17.14424298 3.11425447 -11.5 -0.6875 C-6.79353415 -2.45242469 -4.67293623 -1.63962675 0 0 Z " fill="#E2E2E2" transform="translate(419,96)"/>
<path d="M0 0 C0.33 0 0.66 0 1 0 C1.15639125 5.06316683 0.62766071 9.50398438 -0.5 14.4375 C-0.7784375 15.67371094 -1.056875 16.90992188 -1.34375 18.18359375 C-1.5603125 19.11300781 -1.776875 20.04242188 -2 21 C-2.99 21 -3.98 21 -5 21 C-4.74292265 18.62279061 -4.46982932 16.24923394 -4.1875 13.875 C-4.11724609 13.20984375 -4.04699219 12.5446875 -3.97460938 11.859375 C-3.42314918 7.35945979 -2.23570772 3.93239549 0 0 Z " fill="#EDEDED" transform="translate(145,119)"/>
<path d="M0 0 C0.33 0 0.66 0 1 0 C1.13794954 7.06608191 0.74805717 13.97360585 0 21 C-0.99 20.34 -1.98 19.68 -3 19 C-3.54958863 12.84460734 -2.59153901 6.95955847 -1 1 C-0.67 0.67 -0.34 0.34 0 0 Z " fill="#EDEDED" transform="translate(136,174)"/>
<path d="M0 0 C0.66 0.33 1.32 0.66 2 1 C1.34 6.61 0.68 12.22 0 18 C-0.99 17.34 -1.98 16.68 -3 16 C-3.46574579 10.50419968 -2.80003197 6.18832744 -1 1 C-0.67 0.67 -0.34 0.34 0 0 Z " fill="#E4E4E4" transform="translate(141,139)"/>
<path d="M0 0 C0.66 0.33 1.32 0.66 2 1 C1.01 5.29 0.02 9.58 -1 14 C-1.66 14 -2.32 14 -3 14 C-3.66 14.99 -4.32 15.98 -5 17 C-4.49058038 13.00954634 -3.86372213 9.06802228 -3.0625 5.125 C-2.90910156 4.36445312 -2.75570312 3.60390625 -2.59765625 2.8203125 C-2.40042969 2.21960938 -2.20320312 1.61890625 -2 1 C-1.34 0.67 -0.68 0.34 0 0 Z " fill="#E2E2E2" transform="translate(148,106)"/>
<path d="M0 0 C0.75 1.625 0.75 1.625 1 4 C-2.01157407 9.68852881 -2.01157407 9.68852881 -5.14453125 10.67578125 C-5.75683594 10.78277344 -6.36914062 10.88976562 -7 11 C-6.21258141 9.53936857 -5.4199095 8.08156827 -4.625 6.625 C-4.18414062 5.81289062 -3.74328125 5.00078125 -3.2890625 4.1640625 C-2 2 -2 2 0 0 Z " fill="#F1F1F1" transform="translate(196,216)"/>
<path d="M0 0 C0.5775 0.226875 1.155 0.45375 1.75 0.6875 C0.76 1.0175 -0.23 1.3475 -1.25 1.6875 C-0.59 2.3475 0.07 3.0075 0.75 3.6875 C-2.2326906 5.21198631 -5.068202 6.62690067 -8.25 7.6875 C-6.86345583 3.41232214 -5.12511737 -0.71182186 0 0 Z " fill="#D2D2D2" transform="translate(232.25,93.3125)"/>
<path d="M0 0 C0.66 0.33 1.32 0.66 2 1 C1.34 3.31 0.68 5.62 0 8 C-0.99 8 -1.98 8 -3 8 C-4 6 -4 6 -3.1875 3.4375 C-2 1 -2 1 0 0 Z " fill="#DCDCDC" transform="translate(198,210)"/>
<path d="M0 0 C0.33 0.66 0.66 1.32 1 2 C0.06421005 4.35981813 -0.93347808 6.69631264 -2 9 C-2.99 9 -3.98 9 -5 9 C-4.5206753 4.68607774 -3.2542015 2.83430453 0 0 Z " fill="#F3F3F3" transform="translate(226,99)"/>
<path d="M0 0 C1.258125 -0.04125 2.51625 -0.0825 3.8125 -0.125 C4.52019531 -0.14820312 5.22789062 -0.17140625 5.95703125 -0.1953125 C8 0 8 0 11 2 C6.74433453 3.16063604 3.3164922 2.76173392 -1 2 C-0.67 1.34 -0.34 0.68 0 0 Z " fill="#FAFAFA" transform="translate(413,94)"/>
<path d="M0 0 C0.99 0 1.98 0 3 0 C2.8125 1.8125 2.8125 1.8125 2 4 C-0.26546849 5.56840126 -2.5414529 6.77072645 -5 8 C-3.63029745 5.04987143 -2.17390875 2.4347778 0 0 Z " fill="#E2E2E2" transform="translate(335,208)"/>
<path d="M0 0 C0.66 0.33 1.32 0.66 2 1 C1.67 2.98 1.34 4.96 1 7 C0.01 7 -0.98 7 -2 7 C-2 5.02 -2 3.04 -2 1 C-1.34 0.67 -0.68 0.34 0 0 Z " fill="#DADADA" transform="translate(208,166)"/>
<path d="M0 0 C0.33 0 0.66 0 1 0 C1 3.3 1 6.6 1 10 C0.01 9.67 -0.98 9.34 -2 9 C-1.125 1.125 -1.125 1.125 0 0 Z " fill="#F4F4F4" transform="translate(136,174)"/>
<path d="M0 0 C0.33 0 0.66 0 1 0 C1.36923077 5.53846154 1.36923077 5.53846154 -0.5 7.875 C-1.2425 8.431875 -1.2425 8.431875 -2 9 C-3 6 -3 6 -1.5625 2.8125 C-1.046875 1.884375 -0.53125 0.95625 0 0 Z " fill="#F6F6F6" transform="translate(203,191)"/>
<path d="M0 0 C0.33 0.99 0.66 1.98 1 3 C-0.57894208 5.36841312 -1.9754262 7.06745228 -4 9 C-3.6875 5.625 -3.6875 5.625 -3 2 C-2.01 1.34 -1.02 0.68 0 0 Z " fill="#DADADA" transform="translate(205,186)"/>
<path d="M0 0 C0.33 0.99 0.66 1.98 1 3 C-0.25 5.1875 -0.25 5.1875 -2 7 C-2.99 7 -3.98 7 -5 7 C-3.75023244 3.34683329 -3.32901247 2.21934164 0 0 Z " fill="#E4E4E4" transform="translate(380,134)"/>
<path d="M0 0 C0.33 0 0.66 0 1 0 C1.125 5.75 1.125 5.75 0 8 C-0.66 8 -1.32 8 -2 8 C-2.125 5.125 -2.125 5.125 -2 2 C-1.34 1.34 -0.68 0.68 0 0 Z " fill="#F4F4F4" transform="translate(216,127)"/>
<path d="M0 0 C0 2.31 0 4.62 0 7 C-0.99 7 -1.98 7 -3 7 C-3 5.02 -3 3.04 -3 1 C-1 0 -1 0 0 0 Z " fill="#E5E5E5" transform="translate(212,150)"/>
</svg>
