<?xml version="1.0" encoding="UTF-8"?>
<svg xmlns="http://www.w3.org/2000/svg" xmlns:xlink="http://www.w3.org/1999/xlink" width="24px" height="24px" viewBox="0 0 24 24" version="1.1">
<defs>
<linearGradient id="linear0" gradientUnits="userSpaceOnUse" x1="-133.268005" y1="-202.910004" x2="-133.197998" y2="-202.839996" gradientTransform="matrix(142.035004,0,0,142.357498,18932.29541,28889.378906)">
<stop offset="0" style="stop-color:rgb(21.960784%,49.411765%,72.156863%);stop-opacity:1;"/>
<stop offset="1" style="stop-color:rgb(21.176471%,41.176471%,58.039216%);stop-opacity:1;"/>
</linearGradient>
<linearGradient id="linear1" gradientUnits="userSpaceOnUse" x1="-133.574997" y1="-203.203003" x2="-133.494995" y2="-203.132996" gradientTransform="matrix(142.035004,0,0,142.357498,18981.79541,28937.566406)">
<stop offset="0" style="stop-color:rgb(100%,87.843137%,32.156863%);stop-opacity:1;"/>
<stop offset="1" style="stop-color:rgb(100%,76.470588%,19.215686%);stop-opacity:1;"/>
</linearGradient>
</defs>
<g id="surface1">
<path style=" stroke:none;fill-rule:nonzero;fill:url(#linear0);" d="M 11.914062 1.574219 C 6.589844 1.574219 6.925781 3.878906 6.925781 3.878906 L 6.925781 6.269531 L 11.988281 6.269531 L 11.988281 7.019531 L 4.910156 7.019531 C 4.910156 7.019531 1.5 6.601562 1.5 12.003906 C 1.5 17.40625 4.507812 17.1875 4.507812 17.1875 L 6.246094 17.1875 L 6.246094 14.667969 C 6.246094 14.667969 6.148438 11.65625 9.171875 11.65625 L 14.242188 11.65625 C 14.242188 11.65625 17.074219 11.703125 17.074219 8.917969 L 17.074219 4.351562 C 17.074219 4.351562 17.503906 1.566406 11.941406 1.566406 Z M 9.113281 3.179688 C 9.617188 3.164062 10.035156 3.5625 10.046875 4.066406 C 10.0625 4.566406 9.664062 4.984375 9.160156 5 C 8.65625 5.011719 8.238281 4.613281 8.226562 4.109375 L 8.226562 4.097656 C 8.226562 3.59375 8.636719 3.183594 9.136719 3.183594 Z M 9.113281 3.179688 "/>
<path style=" stroke:none;fill-rule:nonzero;fill:url(#linear1);" d="M 12.0625 22.433594 C 17.390625 22.433594 17.050781 20.121094 17.050781 20.121094 L 17.050781 17.738281 L 11.988281 17.738281 L 11.988281 16.988281 L 19.089844 16.988281 C 19.089844 16.988281 22.5 17.367188 22.5 11.996094 C 22.5 6.625 19.492188 6.8125 19.492188 6.8125 L 17.730469 6.8125 L 17.730469 9.300781 C 17.730469 9.300781 17.828125 12.308594 14.804688 12.308594 L 9.730469 12.308594 C 9.730469 12.308594 6.898438 12.265625 6.898438 15.050781 L 6.898438 19.648438 C 6.898438 19.648438 6.472656 22.433594 12.03125 22.433594 Z M 14.863281 20.820312 C 14.359375 20.835938 13.941406 20.4375 13.929688 19.933594 C 13.917969 19.433594 14.3125 19.015625 14.816406 19 C 15.320312 18.988281 15.738281 19.386719 15.75 19.890625 L 15.75 19.910156 C 15.75 20.414062 15.34375 20.820312 14.839844 20.820312 Z M 14.863281 20.820312 "/>
</g>
</svg>
